<svg xmlns="http://www.w3.org/2000/svg" xmlns:xlink="http://www.w3.org/1999/xlink" width="305.048" height="305.048" viewBox="0 0 305.048 305.048">
  <defs>
    <clipPath id="clip-path">
      <circle id="Ellipse_2" data-name="Ellipse 2" cx="119" cy="119" r="119" transform="translate(1411 2910)" fill="#fff"/>
    </clipPath>
    <clipPath id="clip-path-2">
      <rect width="1378.251" height="1030" fill="none"/>
    </clipPath>
  </defs>
  <g id="Mask_Group_1" data-name="Mask Group 1" transform="translate(2626.232 2475.562) rotate(160)" clip-path="url(#clip-path)">
    <g id="Repeat_Grid_2" data-name="Repeat Grid 2" transform="translate(270.874 2528.325)" clip-path="url(#clip-path-2)">
      <g transform="translate(-264.245 -1409.325)">
        <path id="Path_1" data-name="Path 1" d="M264.262,1943.425l494.114-16.516s277.681-12.731,466.587-72.947S1409.74,1797.187,1514,1686.045,1642,1409.4,1642,1409.4" fill="none" stroke="#f49538" stroke-width="1"/>
      </g>
      <g transform="translate(-264.245 -1378.325)">
        <path id="Path_1-2" data-name="Path 1" d="M264.262,1943.425l494.114-16.516s277.681-12.731,466.587-72.947S1409.74,1797.187,1514,1686.045,1642,1409.4,1642,1409.4" fill="none" stroke="#f49538" stroke-width="1"/>
      </g>
      <g transform="translate(-264.245 -1347.325)">
        <path id="Path_1-3" data-name="Path 1" d="M264.262,1943.425l494.114-16.516s277.681-12.731,466.587-72.947S1409.74,1797.187,1514,1686.045,1642,1409.4,1642,1409.4" fill="none" stroke="#f49538" stroke-width="1"/>
      </g>
      <g transform="translate(-264.245 -1316.325)">
        <path id="Path_1-4" data-name="Path 1" d="M264.262,1943.425l494.114-16.516s277.681-12.731,466.587-72.947S1409.74,1797.187,1514,1686.045,1642,1409.4,1642,1409.4" fill="none" stroke="#f49538" stroke-width="1"/>
      </g>
      <g transform="translate(-264.245 -1285.325)">
        <path id="Path_1-5" data-name="Path 1" d="M264.262,1943.425l494.114-16.516s277.681-12.731,466.587-72.947S1409.74,1797.187,1514,1686.045,1642,1409.4,1642,1409.4" fill="none" stroke="#f49538" stroke-width="1"/>
      </g>
      <g transform="translate(-264.245 -1254.325)">
        <path id="Path_1-6" data-name="Path 1" d="M264.262,1943.425l494.114-16.516s277.681-12.731,466.587-72.947S1409.74,1797.187,1514,1686.045,1642,1409.4,1642,1409.4" fill="none" stroke="#f49538" stroke-width="1"/>
      </g>
      <g transform="translate(-264.245 -1223.325)">
        <path id="Path_1-7" data-name="Path 1" d="M264.262,1943.425l494.114-16.516s277.681-12.731,466.587-72.947S1409.74,1797.187,1514,1686.045,1642,1409.4,1642,1409.4" fill="none" stroke="#f49538" stroke-width="1"/>
      </g>
      <g transform="translate(-264.245 -1192.325)">
        <path id="Path_1-8" data-name="Path 1" d="M264.262,1943.425l494.114-16.516s277.681-12.731,466.587-72.947S1409.74,1797.187,1514,1686.045,1642,1409.4,1642,1409.4" fill="none" stroke="#f49538" stroke-width="1"/>
      </g>
      <g transform="translate(-264.245 -1161.325)">
        <path id="Path_1-9" data-name="Path 1" d="M264.262,1943.425l494.114-16.516s277.681-12.731,466.587-72.947S1409.74,1797.187,1514,1686.045,1642,1409.4,1642,1409.4" fill="none" stroke="#f49538" stroke-width="1"/>
      </g>
      <g transform="translate(-264.245 -1130.325)">
        <path id="Path_1-10" data-name="Path 1" d="M264.262,1943.425l494.114-16.516s277.681-12.731,466.587-72.947S1409.74,1797.187,1514,1686.045,1642,1409.4,1642,1409.4" fill="none" stroke="#f49538" stroke-width="1"/>
      </g>
      <g transform="translate(-264.245 -1099.325)">
        <path id="Path_1-11" data-name="Path 1" d="M264.262,1943.425l494.114-16.516s277.681-12.731,466.587-72.947S1409.74,1797.187,1514,1686.045,1642,1409.4,1642,1409.4" fill="none" stroke="#f49538" stroke-width="1"/>
      </g>
      <g transform="translate(-264.245 -1068.325)">
        <path id="Path_1-12" data-name="Path 1" d="M264.262,1943.425l494.114-16.516s277.681-12.731,466.587-72.947S1409.74,1797.187,1514,1686.045,1642,1409.4,1642,1409.4" fill="none" stroke="#f49538" stroke-width="1"/>
      </g>
      <g transform="translate(-264.245 -1037.325)">
        <path id="Path_1-13" data-name="Path 1" d="M264.262,1943.425l494.114-16.516s277.681-12.731,466.587-72.947S1409.74,1797.187,1514,1686.045,1642,1409.4,1642,1409.4" fill="none" stroke="#f49538" stroke-width="1"/>
      </g>
      <g transform="translate(-264.245 -1006.325)">
        <path id="Path_1-14" data-name="Path 1" d="M264.262,1943.425l494.114-16.516s277.681-12.731,466.587-72.947S1409.74,1797.187,1514,1686.045,1642,1409.4,1642,1409.4" fill="none" stroke="#f49538" stroke-width="1"/>
      </g>
      <g transform="translate(-264.245 -975.325)">
        <path id="Path_1-15" data-name="Path 1" d="M264.262,1943.425l494.114-16.516s277.681-12.731,466.587-72.947S1409.74,1797.187,1514,1686.045,1642,1409.4,1642,1409.4" fill="none" stroke="#f49538" stroke-width="1"/>
      </g>
      <g transform="translate(-264.245 -944.325)">
        <path id="Path_1-16" data-name="Path 1" d="M264.262,1943.425l494.114-16.516s277.681-12.731,466.587-72.947S1409.74,1797.187,1514,1686.045,1642,1409.4,1642,1409.4" fill="none" stroke="#f49538" stroke-width="1"/>
      </g>
      <g transform="translate(-264.245 -913.325)">
        <path id="Path_1-17" data-name="Path 1" d="M264.262,1943.425l494.114-16.516s277.681-12.731,466.587-72.947S1409.74,1797.187,1514,1686.045,1642,1409.4,1642,1409.4" fill="none" stroke="#f49538" stroke-width="1"/>
      </g>
      <g transform="translate(-264.245 -882.325)">
        <path id="Path_1-18" data-name="Path 1" d="M264.262,1943.425l494.114-16.516s277.681-12.731,466.587-72.947S1409.74,1797.187,1514,1686.045,1642,1409.4,1642,1409.4" fill="none" stroke="#f49538" stroke-width="1"/>
      </g>
      <g transform="translate(-264.245 -851.325)">
        <path id="Path_1-19" data-name="Path 1" d="M264.262,1943.425l494.114-16.516s277.681-12.731,466.587-72.947S1409.74,1797.187,1514,1686.045,1642,1409.4,1642,1409.4" fill="none" stroke="#f49538" stroke-width="1"/>
      </g>
      <g transform="translate(-264.245 -820.325)">
        <path id="Path_1-20" data-name="Path 1" d="M264.262,1943.425l494.114-16.516s277.681-12.731,466.587-72.947S1409.74,1797.187,1514,1686.045,1642,1409.4,1642,1409.4" fill="none" stroke="#f49538" stroke-width="1"/>
      </g>
      <g transform="translate(-264.245 -789.325)">
        <path id="Path_1-21" data-name="Path 1" d="M264.262,1943.425l494.114-16.516s277.681-12.731,466.587-72.947S1409.74,1797.187,1514,1686.045,1642,1409.4,1642,1409.4" fill="none" stroke="#f49538" stroke-width="1"/>
      </g>
      <g transform="translate(-264.245 -758.325)">
        <path id="Path_1-22" data-name="Path 1" d="M264.262,1943.425l494.114-16.516s277.681-12.731,466.587-72.947S1409.74,1797.187,1514,1686.045,1642,1409.4,1642,1409.4" fill="none" stroke="#f49538" stroke-width="1"/>
      </g>
      <g transform="translate(-264.245 -727.325)">
        <path id="Path_1-23" data-name="Path 1" d="M264.262,1943.425l494.114-16.516s277.681-12.731,466.587-72.947S1409.74,1797.187,1514,1686.045,1642,1409.4,1642,1409.4" fill="none" stroke="#f49538" stroke-width="1"/>
      </g>
      <g transform="translate(-264.245 -696.325)">
        <path id="Path_1-24" data-name="Path 1" d="M264.262,1943.425l494.114-16.516s277.681-12.731,466.587-72.947S1409.74,1797.187,1514,1686.045,1642,1409.4,1642,1409.4" fill="none" stroke="#f49538" stroke-width="1"/>
      </g>
      <g transform="translate(-264.245 -665.325)">
        <path id="Path_1-25" data-name="Path 1" d="M264.262,1943.425l494.114-16.516s277.681-12.731,466.587-72.947S1409.74,1797.187,1514,1686.045,1642,1409.4,1642,1409.4" fill="none" stroke="#f49538" stroke-width="1"/>
      </g>
      <g transform="translate(-264.245 -634.325)">
        <path id="Path_1-26" data-name="Path 1" d="M264.262,1943.425l494.114-16.516s277.681-12.731,466.587-72.947S1409.74,1797.187,1514,1686.045,1642,1409.4,1642,1409.4" fill="none" stroke="#f49538" stroke-width="1"/>
      </g>
      <g transform="translate(-264.245 -603.325)">
        <path id="Path_1-27" data-name="Path 1" d="M264.262,1943.425l494.114-16.516s277.681-12.731,466.587-72.947S1409.74,1797.187,1514,1686.045,1642,1409.4,1642,1409.4" fill="none" stroke="#f49538" stroke-width="1"/>
      </g>
      <g transform="translate(-264.245 -572.325)">
        <path id="Path_1-28" data-name="Path 1" d="M264.262,1943.425l494.114-16.516s277.681-12.731,466.587-72.947S1409.74,1797.187,1514,1686.045,1642,1409.4,1642,1409.4" fill="none" stroke="#f49538" stroke-width="1"/>
      </g>
      <g transform="translate(-264.245 -541.325)">
        <path id="Path_1-29" data-name="Path 1" d="M264.262,1943.425l494.114-16.516s277.681-12.731,466.587-72.947S1409.74,1797.187,1514,1686.045,1642,1409.4,1642,1409.4" fill="none" stroke="#f49538" stroke-width="1"/>
      </g>
      <g transform="translate(-264.245 -510.325)">
        <path id="Path_1-30" data-name="Path 1" d="M264.262,1943.425l494.114-16.516s277.681-12.731,466.587-72.947S1409.74,1797.187,1514,1686.045,1642,1409.4,1642,1409.4" fill="none" stroke="#f49538" stroke-width="1"/>
      </g>
      <g transform="translate(-264.245 -479.325)">
        <path id="Path_1-31" data-name="Path 1" d="M264.262,1943.425l494.114-16.516s277.681-12.731,466.587-72.947S1409.74,1797.187,1514,1686.045,1642,1409.4,1642,1409.4" fill="none" stroke="#f49538" stroke-width="1"/>
      </g>
      <g transform="translate(-264.245 -448.325)">
        <path id="Path_1-32" data-name="Path 1" d="M264.262,1943.425l494.114-16.516s277.681-12.731,466.587-72.947S1409.74,1797.187,1514,1686.045,1642,1409.4,1642,1409.4" fill="none" stroke="#f49538" stroke-width="1"/>
      </g>
      <g transform="translate(-264.245 -417.325)">
        <path id="Path_1-33" data-name="Path 1" d="M264.262,1943.425l494.114-16.516s277.681-12.731,466.587-72.947S1409.74,1797.187,1514,1686.045,1642,1409.4,1642,1409.4" fill="none" stroke="#f49538" stroke-width="1"/>
      </g>
      <g transform="translate(-264.245 -386.325)">
        <path id="Path_1-34" data-name="Path 1" d="M264.262,1943.425l494.114-16.516s277.681-12.731,466.587-72.947S1409.74,1797.187,1514,1686.045,1642,1409.4,1642,1409.4" fill="none" stroke="#f49538" stroke-width="1"/>
      </g>
    </g>
  </g>
</svg>